<svg xmlns="http://www.w3.org/2000/svg" viewBox="0 0 24 24" fill="none">
  <!-- 그림자 효과 -->
  <filter id="shadow" x="-0.5" y="-0.5" width="200%" height="200%">
    <feOffset result="offOut" in="SourceAlpha" dx="0.5" dy="0.5" />
    <feGaussianBlur result="blurOut" in="offOut" stdDeviation="0.5" />
    <feBlend in="SourceGraphic" in2="blurOut" mode="normal" />
  </filter>
  
  <!-- 책 본체 -->
  <path d="M4 19.5C4 18.837 4.26339 18.2011 4.73223 17.7322C5.20107 17.2634 5.83696 17 6.5 17H20" 
        stroke="#4B5563" stroke-width="1.5" stroke-linecap="round" stroke-linejoin="round" />
  <path d="M6.5 2H20V22H6.5C5.83696 22 5.20107 21.7366 4.73223 21.2678C4.26339 20.7989 4 20.163 4 19.5V4.5C4 3.83696 4.26339 3.20107 4.73223 2.73223C5.20107 2.26339 5.83696 2 6.5 2Z" 
        fill="#FFFFFF" stroke="#4B5563" stroke-width="1.5" stroke-linecap="round" stroke-linejoin="round" filter="url(#shadow)" />
        
  <!-- 책 내부 디테일 -->
  <path d="M8 6H16" stroke="#3B82F6" stroke-width="1.5" stroke-linecap="round" />
  <path d="M8 10H16" stroke="#3B82F6" stroke-width="1.5" stroke-linecap="round" />
  <path d="M8 14H13" stroke="#3B82F6" stroke-width="1.5" stroke-linecap="round" />
  
  <!-- 책갈피 -->
  <path d="M17 2V9L18.5 7.5L20 9V2" fill="#F87171" stroke="#DC2626" stroke-width="1" stroke-linejoin="round" />
</svg>